<svg xmlns="http://www.w3.org/2000/svg" width="575" height="293" viewBox="0 0 575 293" fill="none"><g clip-path="url(#clip0_48_581)"><path d="M305.058 90.0822C305.058 89.3893 304.944 88.6963 304.89 88.063H268.256C268.207 88.8696 268.121 89.5842 268.121 90.2934C268.142 133.819 268.137 177.344 268.218 220.869C268.245 234.744 262.348 245.339 250.593 252.339C241.788 257.579 232.281 258.413 222.363 255.126C215.337 252.799 209.742 248.663 205.294 242.968C200.143 236.368 198.106 228.8 198.138 220.35C198.3 176.889 198.23 133.423 198.235 89.9577C198.235 89.3676 198.176 88.7776 198.144 88.1009C197.668 88.0684 197.317 88.0196 196.971 88.0196C185.847 88.0034 174.73 88.0305 163.606 87.9493C162.017 87.9385 161.715 88.4581 161.72 89.9306C161.769 132.785 161.763 175.644 161.785 218.498C161.785 222.694 161.552 226.938 162.077 231.079C163.385 241.392 166.865 251.007 172.481 259.793C179.021 270.025 187.642 278.064 198.181 284.057C206.894 289.016 216.261 291.971 226.227 292.832C230.016 293.162 233.854 292.903 237.67 292.913C245.561 292.94 253.09 291.002 260.3 288.09C268.786 284.663 276.396 279.715 283.017 273.305C289.33 267.199 294.318 260.145 298.118 252.252C303.112 241.874 305.025 230.792 305.069 219.375C305.144 199.469 305.101 179.564 305.096 159.658C305.096 136.466 305.079 113.274 305.058 90.0822Z" fill="#EB4927"></path><path d="M142.387 140.829C139.83 125.731 133.285 112.744 122.697 101.803C113.054 91.8417 101.255 85.5728 87.8134 82.617C77.1442 80.2729 66.3668 80.1267 55.7894 83.3316C49.1468 85.34 42.8177 88.063 37.6398 92.9299C37.3965 93.1572 36.9155 93.1247 36.2831 93.2709C36.2831 77.5877 36.2831 62.1427 36.2831 46.6923C36.2831 31.2419 36.2831 15.797 36.2831 8.67066e-05C34.986 8.67066e-05 33.8563 8.67066e-05 32.7213 8.67066e-05C23.9708 8.67066e-05 15.2148 -0.00532689 6.46431 8.67066e-05C4.88608 8.67066e-05 3.30245 0.14084 1.72422 0.0650498C0.324351 8.67054e-05 -0.0377775 0.606409 5.67839e-05 1.90026C0.0757254 4.27141 0.0216764 6.64257 0.0216764 9.01372C0.0216764 77.6256 0.0108666 146.238 0.00546168 214.855C0.00546168 218.19 0.00546168 221.519 0.00546168 224.762C0.275707 224.913 0.372995 225.022 0.481093 225.027C12.026 225.081 23.5708 225.135 35.1157 225.13C35.5048 225.13 36.0994 224.572 36.2291 224.155C36.4237 223.549 36.2939 222.835 36.2939 222.163C36.2939 199.399 36.2345 176.629 36.3372 153.865C36.3804 144.662 39.0396 136.282 45.212 129.228C52.3033 121.118 61.3294 117.134 72.0041 116.961C77.9441 116.863 83.5111 118.487 88.6674 121.487C100.466 128.351 106.725 138.734 106.92 152.268C107.233 173.695 107.001 195.122 107.001 216.555C107.001 219.337 107.001 222.115 107.001 225.005C118.665 225.005 130.085 224.995 141.5 225.022C142.754 225.022 143.257 224.502 143.279 223.295C143.311 221.411 143.457 219.521 143.457 217.637C143.468 199.556 143.506 181.475 143.43 163.393C143.397 155.868 143.662 148.354 142.387 140.835V140.829Z" fill="#EB4927"></path><path d="M552.148 100.877C536.604 86.2223 517.849 79.5907 496.57 81.1444C477.188 82.5628 460.616 90.4612 447.628 105.083C433.651 120.81 427.803 139.378 429.441 160.34C432.316 197.185 463.643 228.275 504.423 226.868C544.879 225.471 574.178 192.729 575.005 152.284C574.924 134.008 567.725 115.559 552.154 100.877H552.148ZM531.242 180.933C523.454 189.519 513.427 193.92 502.255 193.996C491.646 194.067 481.852 190.239 474.101 182.341C466.145 174.231 462.189 164.622 462.232 153.178C462.319 131.74 480.62 113.669 502.51 113.924C524.086 114.173 541.992 132.319 541.819 158.488C541.695 164.303 538.187 173.273 531.242 180.933Z" fill="#EB4927"></path><path d="M416.447 0.17865H380.208C380.208 4.3417 380.208 8.1637 380.208 11.9911C380.218 82.1892 380.229 152.387 380.24 222.585C380.24 224.935 380.299 225 382.732 225C392.823 225 402.913 225.016 413.004 224.962C416.68 224.946 416.566 225.557 416.566 221.438C416.572 148.435 416.577 75.4385 416.577 2.43612C416.577 1.6728 416.491 0.914899 416.447 0.17865Z" fill="#EB4927"></path><path d="M324.483 0.189484V224.962C324.834 224.962 325.067 224.962 325.299 224.962C335.509 224.962 345.719 224.946 355.923 224.978C360.669 224.994 360.658 225.038 360.658 220.295C360.685 147.439 360.712 74.5831 360.734 1.72694C360.734 1.20724 360.642 0.687534 360.593 0.189484H324.478H324.483Z" fill="#EB4927"></path></g><defs><clipPath id="clip0_48_581"><rect width="575" height="293" fill="white"></rect></clipPath></defs></svg>