<svg width="77" height="75" viewBox="0 0 77 75" fill="none" xmlns="http://www.w3.org/2000/svg">
<path d="M57.0088 38.5525C56.8839 37.8195 56.2307 37.2811 55.4683 37.2811H52.3432C51.4807 37.2811 50.7806 37.9625 50.7806 38.802V42.6863C50.7806 43.2276 51.0776 43.7265 51.5588 44.0003C53.0306 44.8336 53.9056 46.2998 53.9056 47.927C53.9056 50.4425 51.8025 52.4895 49.2181 52.4895H11.7182C9.13377 52.4895 7.0307 50.4425 7.0307 47.927C7.0307 46.3028 7.90887 44.8336 9.37752 44.0003C9.85872 43.7265 10.1556 43.2276 10.1556 42.6863V38.802C10.1558 37.9625 9.45574 37.2811 8.59324 37.2811H5.4683C4.70263 37.2811 4.05268 37.8195 3.92773 38.5525L1.02148 55.5311H59.9182L57.0088 38.5525Z" fill="#222755" stroke="#222755" stroke-width="1.5625"/>
<path d="M11.7188 49.4477H49.2187C50.0812 49.4477 50.7813 48.7663 50.7813 47.9268C50.7813 47.0873 50.0812 46.4061 49.2187 46.4061H47.6562V37.6582C47.6562 37.1228 47.3655 36.6241 46.8905 36.3504C46.4154 36.0736 45.828 36.0645 45.3467 36.32C41.9748 38.1055 38.0373 37.415 35.5154 34.9574C32.7154 32.232 32.278 27.9281 34.4404 24.7739L39.1998 18.4046C39.5467 17.9423 39.5935 17.3309 39.331 16.8199C39.0655 16.3119 38.5248 15.9895 37.9372 15.9895H14.8437C13.9812 15.9895 13.2812 16.6709 13.2812 17.5104V46.4061H11.7188C10.8563 46.4061 10.1562 47.0875 10.1562 47.927C10.1562 48.7665 10.8563 49.4477 11.7188 49.4477Z" fill="#222755" stroke="#222755" stroke-width="1.5625"/>
<path d="M74.217 0.78125C70.539 0.78125 65.8639 3.07775 64.4795 3.80462L44.5297 0.833006C41.7266 0.833006 34.9609 1.00937 32.7672 2.58201L20.2673 10.1344C19.6736 10.4932 19.3985 11.1899 19.5892 11.8437C19.783 12.4977 20.3954 12.9479 21.0923 12.9479H35.1547C35.2797 12.9479 35.4016 12.9326 35.5234 12.9052L37.6171 12.4034C40.4765 11.9959 42.9672 14.1859 42.9672 16.9204C42.9672 17.9759 42.6297 18.9856 41.9891 19.8374L37.0735 26.4104C35.7017 28.4117 35.9736 31.1006 37.7235 32.804C38.7048 33.7591 40.014 34.2884 41.4048 34.2884C42.7953 34.2884 44.1017 33.7621 45.0861 32.804L53.0079 25.0934C55.9673 24.9321 58.6735 23.6881 60.6829 21.6776C63.4549 24.1809 72.336 24.9717 74.0955 25.1056C74.136 25.1148 74.1768 25.1148 74.2173 25.1148C74.608 25.1148 74.9891 24.9717 75.2767 24.7103C75.5985 24.4213 75.7799 24.0168 75.7799 23.594V2.30213C75.7796 1.46263 75.0795 0.78125 74.217 0.78125Z" fill="#222755" stroke="#222755" stroke-width="1.5625"/>
<path d="M0.78125 72.2601C0.78125 73.0996 1.4813 73.781 2.34379 73.781H58.5937C59.4562 73.781 60.1562 73.0996 60.1562 72.2601V58.5726H0.78125V72.2601Z" fill="#222755" stroke="#222755" stroke-width="1.5625"/>
</svg>
