<svg width="16" height="18" viewBox="0 0 16 18" fill="none" xmlns="http://www.w3.org/2000/svg">
<path d="M1.5 6H12.5V4H1.5V6ZM1.5 16.5C1.0875 16.5 0.734375 16.3531 0.440625 16.0594C0.146875 15.7656 0 15.4125 0 15V4C0 3.59722 0.149306 3.24653 0.447917 2.94792C0.746528 2.64931 1.09722 2.5 1.5 2.5H3V0.5H4.5V2.5H9.5V0.5H11V2.5H12.5C12.9028 2.5 13.2535 2.64931 13.5521 2.94792C13.8507 3.24653 14 3.59722 14 4V8.375C13.7639 8.27778 13.5206 8.20139 13.2702 8.14583C13.0197 8.09028 12.7629 8.04861 12.5 8.02083V7.5H1.5V15H6.70833C6.77778 15.2778 6.87153 15.5382 6.98958 15.7812C7.10764 16.0243 7.24306 16.2639 7.39583 16.5H1.5ZM11.9952 17.5C10.8873 17.5 9.94444 17.1095 9.16667 16.3285C8.38889 15.5477 8 14.6033 8 13.4952C8 12.3873 8.39049 11.4444 9.17146 10.6667C9.95229 9.88889 10.8967 9.5 12.0048 9.5C13.1127 9.5 14.0556 9.89049 14.8333 10.6715C15.6111 11.4523 16 12.3967 16 13.5048C16 14.6127 15.6095 15.5556 14.8285 16.3333C14.0477 17.1111 13.1033 17.5 11.9952 17.5ZM13.1458 15.3542L13.8542 14.6458L12.5 13.2917V11.5H11.5V13.7083L13.1458 15.3542Z" fill="white"/>
</svg>
